<svg xmlns="http://www.w3.org/2000/svg" viewBox="0 0 491.996 290.6">
  <g id="download" transform="translate(491.996 391.298) rotate(180)">
    <g id="Group_3" data-name="Group 3">
      <path id="Path_24" data-name="Path 24" d="M484.132,124.986l-16.116-16.228a26.977,26.977,0,0,0-38.068,0L246.108,292.606,62.056,108.554a26.982,26.982,0,0,0-38.064,0L7.872,124.682a26.938,26.938,0,0,0,0,38.06L227.008,382.666c5.064,5.064,11.812,8.632,19.084,8.632h.084c7.212,0,13.96-3.572,19.024-8.632L484.132,163.338A27.183,27.183,0,0,0,492,144.114,26.912,26.912,0,0,0,484.132,124.986Z" fill="#00465f"/>
    </g>
  </g>
</svg>
