<svg id="cpu" 
  xmlns="http://www.w3.org/2000/svg" viewBox="0 0 450 450">
  <path id="Path_1" data-name="Path 1" d="M379.05,205.562a37.446,37.446,0,0,0,34.017,22.355,36.933,36.933,0,0,0,0-73.866,37.445,37.445,0,0,0-34.017,22.355H334.827V129.753a14.318,14.318,0,0,0-14.578-14.578H273.11V72.409h29.158a37.446,37.446,0,0,0,34.017,22.355,36.933,36.933,0,0,0,0-73.866,37.445,37.445,0,0,0-34.017,22.355H258.532A14.318,14.318,0,0,0,243.953,57.83v57.344H200.217V70.951a37.446,37.446,0,0,0,22.355-34.017,36.933,36.933,0,1,0-73.867,0A37.445,37.445,0,0,0,171.059,70.95v44.223H129.753a14.318,14.318,0,0,0-14.578,14.578v46.167H72.408V146.761a37.446,37.446,0,0,0,22.355-34.017,36.933,36.933,0,1,0-73.866,0,37.445,37.445,0,0,0,22.355,34.017V190.5A14.318,14.318,0,0,0,57.83,205.076h57.344v43.736H70.951a37.446,37.446,0,0,0-34.017-22.355,36.934,36.934,0,0,0,0,73.867A37.445,37.445,0,0,0,70.95,277.97h44.223v42.279a14.318,14.318,0,0,0,14.578,14.578h46.167v42.765H146.761a37.446,37.446,0,0,0-34.017-22.355,36.933,36.933,0,0,0,0,73.866,37.445,37.445,0,0,0,34.017-22.355H190.5a14.318,14.318,0,0,0,14.578-14.578V334.827h43.736V379.05a37.446,37.446,0,0,0-22.355,34.017,36.933,36.933,0,1,0,73.866,0,37.445,37.445,0,0,0-22.355-34.017V334.827h42.279a14.318,14.318,0,0,0,14.578-14.578V278.456h42.765v29.158a37.445,37.445,0,0,0-22.355,34.017,36.933,36.933,0,1,0,73.866,0,37.445,37.445,0,0,0-22.355-34.017V263.877A14.318,14.318,0,0,0,392.169,249.3H334.826V205.562H379.05Zm34.018-22.355a7.775,7.775,0,1,1-7.775,7.775A7.676,7.676,0,0,1,413.068,183.208ZM336.286,50.054a7.775,7.775,0,1,1-7.775,7.775A7.676,7.676,0,0,1,336.286,50.054ZM57.829,120.518a7.775,7.775,0,1,1,7.775-7.775A7.676,7.676,0,0,1,57.829,120.518Zm-20.9,150.649a7.775,7.775,0,1,1,7.775-7.775A7.676,7.676,0,0,1,36.933,271.168Zm75.81,128.779a7.775,7.775,0,1,1,7.775-7.775A7.676,7.676,0,0,1,112.743,399.947ZM185.638,29.158a7.775,7.775,0,1,1-7.775,7.775A7.676,7.676,0,0,1,185.638,29.158Zm77.753,391.686a7.775,7.775,0,1,1,7.775-7.775A7.676,7.676,0,0,1,263.391,420.844ZM305.67,305.67H144.33V144.331H305.67V305.67Zm86.5,28.186a7.775,7.775,0,1,1-7.775,7.775A7.676,7.676,0,0,1,392.171,333.856Z" fill="#1185e0"/>
  <path id="Path_2" data-name="Path 2" d="M292.049,307.722H191.739a15.393,15.393,0,0,1-15.673-15.673V191.739a15.393,15.393,0,0,1,15.673-15.673h100.31a15.393,15.393,0,0,1,15.673,15.673v100.31A15.393,15.393,0,0,1,292.049,307.722Zm-84.637-31.347h68.963V207.412H207.412Z" transform="translate(-16.894 -16.893)" fill="#4dcfe0"/>
</svg>
