<svg id="empty-set" 
  xmlns="http://www.w3.org/2000/svg" viewBox="0 0 512 512">
  <path id="Path_27" data-name="Path 27" d="M256,512A256.108,256.108,0,0,1,74.9,74.9,256.108,256.108,0,0,1,437.1,437.1h0A254.354,254.354,0,0,1,256,512Z" fill="#5c99af"/>
  <path id="Path_28" data-name="Path 28" d="M437.1,437.1A256,256,0,0,0,256,0V512A254.354,254.354,0,0,0,437.1,437.1Z" fill="#00465f"/>
  <path id="Path_29" data-name="Path 29" d="M385.943,126.056a16.7,16.7,0,0,0-23.624,0l-36.275,36.275a116.955,116.955,0,0,0-163.7,163.7l-36.284,36.284a16.7,16.7,0,1,0,23.624,23.624l36.275-36.275a116.955,116.955,0,0,0,163.7-163.7l36.284-36.284A16.7,16.7,0,0,0,385.943,126.056ZM196.929,196.929A83.792,83.792,0,0,1,302.071,186.3L186.307,302.07A83.7,83.7,0,0,1,196.929,196.929ZM315.071,315.071A83.792,83.792,0,0,1,209.929,325.7L325.693,209.932A83.691,83.691,0,0,1,315.071,315.071Z" fill="#fff1af"/>
  <path id="Path_30" data-name="Path 30" d="M385.943,126.056a16.7,16.7,0,0,0-23.624,0l-36.275,36.275A116.14,116.14,0,0,0,256,139.112v33.413A83.085,83.085,0,0,1,302.071,186.3L256,232.375v47.248l69.694-69.694A83.467,83.467,0,0,1,256,339.472v33.413a116.878,116.878,0,0,0,93.659-186.92l36.284-36.284A16.7,16.7,0,0,0,385.943,126.056Z" fill="#ffda2d"/>
</svg>
