<svg xmlns="http://www.w3.org/2000/svg" viewBox="0 0 345.676 499.494">
  <g id="led" transform="translate(0)">
    <path id="Path_28" data-name="Path 28" d="M175.577,506.138A58.6,58.6,0,0,1,117.043,447.6V330.534a58.534,58.534,0,1,1,117.069,0V447.6A58.606,58.606,0,0,1,175.577,506.138Zm0,0" transform="translate(-2.859 -6.644)" fill="#1e6984"/>
    <path id="Path_29" data-name="Path 29" d="M177.039,272V506.138A58.6,58.6,0,0,0,235.574,447.6V330.534A58.6,58.6,0,0,0,177.039,272Zm0,0" transform="translate(-4.324 -6.644)" fill="#00465f"/>
    <path id="Path_30" data-name="Path 30" d="M232.374,370.384H115.29a14.633,14.633,0,0,1-13.8-9.775c-4.569-12.98-54.613-155.12-54.613-155.12A14.636,14.636,0,0,1,60.677,186H287.014a14.635,14.635,0,0,1,13.8,19.5c-9.123,25.857-54.636,155.109-54.636,155.109A14.633,14.633,0,0,1,232.374,370.384Zm0,0" transform="translate(-1.125 -4.543)" fill="#f6efea"/>
    <path id="Path_31" data-name="Path 31" d="M286.991,212.471H60.7a14.632,14.632,0,0,1-14.634-14.82,127.79,127.79,0,0,1,255.559,0,14.632,14.632,0,0,1-14.63,14.82Zm0,0" transform="translate(-1.125 -1.746)" fill="#ffda2d"/>
    <path id="Path_32" data-name="Path 32" d="M176.673,40.006a14.637,14.637,0,0,1-14.634-14.634V14.634a14.634,14.634,0,1,1,29.267,0V25.373A14.635,14.635,0,0,1,176.673,40.006Zm0,0" transform="translate(-3.958 0)" fill="#ffda2d"/>
    <path id="Path_33" data-name="Path 33" d="M264.817,63.53a14.636,14.636,0,0,1-12.66-21.954l5.369-9.295a14.633,14.633,0,1,1,25.346,14.634L277.5,56.21A14.627,14.627,0,0,1,264.817,63.53Zm0,0" transform="translate(-6.111 -0.61)" fill="#e79d45"/>
    <path id="Path_34" data-name="Path 34" d="M329.446,128.047a14.635,14.635,0,0,1-7.332-27.308l9.3-5.369a14.633,14.633,0,1,1,14.634,25.346l-9.3,5.369A14.563,14.563,0,0,1,329.446,128.047Zm0,0" transform="translate(-7.689 -2.282)" fill="#e79d45"/>
    <path id="Path_35" data-name="Path 35" d="M23.921,128.48a14.573,14.573,0,0,1-7.3-1.963l-9.3-5.369A14.633,14.633,0,1,1,21.954,95.8l9.3,5.366a14.637,14.637,0,0,1-7.332,27.312Zm0,0" transform="translate(0 -2.292)" fill="#ffda2d"/>
    <path id="Path_36" data-name="Path 36" d="M88.464,63.78A14.632,14.632,0,0,1,75.777,56.46l-5.366-9.3A14.633,14.633,0,0,1,95.758,32.528l5.369,9.3A14.639,14.639,0,0,1,88.464,63.78Zm0,0" transform="translate(-1.672 -0.616)" fill="#ffda2d"/>
    <path id="Path_37" data-name="Path 37" d="M302.156,192.181A14.641,14.641,0,0,0,290.21,186H177.039V370.384h58.534a14.633,14.633,0,0,0,13.8-9.775S294.889,231.357,304.009,205.5A14.632,14.632,0,0,0,302.156,192.181Zm0,0" transform="translate(-4.324 -4.543)" fill="#e0d2cd"/>
    <path id="Path_38" data-name="Path 38" d="M266.861,108.393A127.01,127.01,0,0,0,177.043,71.5V212.471H290.191a14.632,14.632,0,0,0,14.63-14.82A127.016,127.016,0,0,0,266.861,108.393Zm0,0" transform="translate(-4.324 -1.746)" fill="#e79d45"/>
    <path id="Path_39" data-name="Path 39" d="M177.039,0V40.006a14.635,14.635,0,0,0,14.634-14.634V14.634A14.633,14.633,0,0,0,177.039,0Zm0,0" transform="translate(-4.324)" fill="#e79d45"/>
    <path id="Path_40" data-name="Path 40" d="M247.208,432.8H100.872a14.633,14.633,0,0,1-14.634-14.634V359.634A14.633,14.633,0,0,1,100.872,345H247.208a14.633,14.633,0,0,1,14.634,14.634v58.534A14.633,14.633,0,0,1,247.208,432.8Zm0,0" transform="translate(-2.106 -8.427)" fill="#a4ffb3"/>
    <path id="Path_41" data-name="Path 41" d="M249.426,345H177.043v87.8h72.383a14.633,14.633,0,0,0,14.634-14.634V359.634A14.633,14.633,0,0,0,249.426,345Zm0,0" transform="translate(-4.324 -8.427)" fill="#00cab1"/>
  </g>
</svg>
