<svg id="voice-search" xmlns="http://www.w3.org/2000/svg" viewBox="0 0 508.132 511.799">
  <path id="Path_50" data-name="Path 50" d="M420.868,225.994v29.988a165.151,165.151,0,0,1-149.94,164.244V481.9H345.9a14.994,14.994,0,1,1,0,29.988H165.971a14.994,14.994,0,1,1,0-29.988h74.971V420.227A165.151,165.151,0,0,1,91,255.983V225.994A15,15,0,0,1,105.994,211h49.98v29.988H120.988v14.994a134.945,134.945,0,1,0,269.891,0V240.988H355.893V211h49.975a15,15,0,0,1,15,14.994Z" transform="translate(-1.591 -0.085)" fill="#5c99af"/>
  <path id="Path_51" data-name="Path 51" d="M420.934,225.994v29.988a165.151,165.151,0,0,1-149.94,164.244V481.9h74.971a14.994,14.994,0,1,1,0,29.988H256V390.931A135.1,135.1,0,0,0,390.945,255.985V240.991H355.96V211h49.98A15,15,0,0,1,420.934,225.994Z" transform="translate(-1.657 -0.085)" fill="#00465f"/>
  <path id="Path_52" data-name="Path 52" d="M255.957,0A105.076,105.076,0,0,0,151,104.957V255.9a104.959,104.959,0,1,0,209.918,0V104.957A105.076,105.076,0,0,0,255.957,0Z" transform="translate(-1.614)" fill="#e79d45"/>
  <g id="Group_18" data-name="Group 18">
    <path id="Path_53" data-name="Path 53" d="M360.957,104.957V255.9A105.074,105.074,0,0,1,256,360.855V0A105.074,105.074,0,0,1,360.957,104.957Z" transform="translate(-1.657)" fill="#df5b5b"/>
    <path id="Path_54" data-name="Path 54" d="M110.622,46C99.786,46,91,52.713,91,60.994v74.971c0,8.282,8.786,14.994,19.622,14.994s19.622-6.713,19.622-14.994V60.994C130.244,52.713,121.458,46,110.622,46Z" transform="translate(-31.023 -0.018)" fill="#e79d45"/>
    <path id="Path_55" data-name="Path 55" d="M50.622,0C39.786,0,31,6.713,31,14.994V180.927c0,8.282,8.786,14.994,19.622,14.994s19.622-6.713,19.622-14.994V14.994C70.244,6.713,61.458,0,50.622,0Z" transform="translate(-31)" fill="#e79d45"/>
  </g>
  <path id="Path_56" data-name="Path 56" d="M410.622,46C399.786,46,391,52.713,391,60.994v74.971c0,8.282,8.786,14.994,19.622,14.994s19.622-6.713,19.622-14.994V60.994C430.244,52.713,421.458,46,410.622,46Z" transform="translate(17.91 -0.018)" fill="#df5b5b"/>
  <path id="Path_57" data-name="Path 57" d="M470.622,0C459.786,0,451,6.713,451,14.994V180.927c0,8.282,8.786,14.994,19.622,14.994s19.622-6.713,19.622-14.994V14.994C490.245,6.713,481.458,0,470.622,0Z" transform="translate(17.887)" fill="#df5b5b"/>
</svg>
