<svg xmlns="http://www.w3.org/2000/svg" viewBox="0 0 329.868 511.799">
  <g id="voice-search" transform="translate(-89.409)">
    <path id="Path_50" data-name="Path 50" d="M420.868,225.994v29.988a165.151,165.151,0,0,1-149.94,164.244V481.9H345.9a14.994,14.994,0,1,1,0,29.988H165.971a14.994,14.994,0,1,1,0-29.988h74.971V420.227A165.151,165.151,0,0,1,91,255.983V225.994A15,15,0,0,1,105.994,211h49.98v29.988H120.988v14.994a134.945,134.945,0,1,0,269.891,0V240.988H355.893V211h49.975a15,15,0,0,1,15,14.994Z" transform="translate(-1.591 -0.085)" fill="#5c99af"/>
    <path id="Path_51" data-name="Path 51" d="M420.934,225.994v29.988a165.151,165.151,0,0,1-149.94,164.244V481.9h74.971a14.994,14.994,0,1,1,0,29.988H256V390.931A135.1,135.1,0,0,0,390.945,255.985V240.991H355.96V211h49.98A15,15,0,0,1,420.934,225.994Z" transform="translate(-1.657 -0.085)" fill="#00465f"/>
    <path id="Path_52" data-name="Path 52" d="M255.957,0A105.076,105.076,0,0,0,151,104.957V255.9a104.959,104.959,0,1,0,209.918,0V104.957A105.076,105.076,0,0,0,255.957,0Z" transform="translate(-1.614)" fill="#e79d45"/>
    <g id="Group_18" data-name="Group 18">
      <path id="Path_53" data-name="Path 53" d="M360.957,104.957V255.9A105.074,105.074,0,0,1,256,360.855V0A105.074,105.074,0,0,1,360.957,104.957Z" transform="translate(-1.657)" fill="#df5b5b"/>
    </g>
  </g>
</svg>
