<svg xmlns="http://www.w3.org/2000/svg" viewBox="0 0 499.7 499.743">
  <g id="tv" transform="translate(0.001)">
    <path id="Path_42" data-name="Path 42" d="M483.542,138.719,360.955,16.135a55.362,55.362,0,0,0-78.134,0L41.505,257.447c-55.342,55.338-55.342,145.383,0,200.725a141.933,141.933,0,0,0,200.721,0L483.542,216.861A55.321,55.321,0,0,0,483.542,138.719Zm0,0" fill="#1e6984"/>
    <path id="Path_43" data-name="Path 43" d="M484.56,140.618,423.267,79.324,42.523,460.071a141.933,141.933,0,0,0,200.721,0L484.56,218.76A55.321,55.321,0,0,0,484.56,140.618Zm0,0" transform="translate(-1.018 -1.899)" fill="#00465f"/>
    <path id="Path_44" data-name="Path 44" d="M120.4,307.094a14.645,14.645,0,1,1,10.348-4.285A14.759,14.759,0,0,1,120.4,307.094Zm0,0" transform="translate(-2.532 -6.651)" fill="#b1d2de"/>
    <path id="Path_45" data-name="Path 45" d="M169.578,356.274a14.632,14.632,0,1,1,10.355-4.285A14.793,14.793,0,0,1,169.578,356.274Zm0,0" transform="translate(-3.709 -7.828)" fill="#b1d2de"/>
    <path id="Path_46" data-name="Path 46" d="M218.762,405.454a14.632,14.632,0,1,1,10.355-4.286A14.775,14.775,0,0,1,218.762,405.454Zm0,0" transform="translate(-4.887 -9.006)" fill="#5c99af"/>
    <path id="Path_47" data-name="Path 47" d="M83.508,343.985a14.645,14.645,0,1,1,10.359-4.3A14.754,14.754,0,0,1,83.508,343.985Zm0,0" transform="translate(-1.649 -7.534)" fill="#b1d2de"/>
    <path id="Path_48" data-name="Path 48" d="M132.692,393.165a14.651,14.651,0,1,1,10.355-4.3A14.71,14.71,0,0,1,132.692,393.165Zm0,0" transform="translate(-2.826 -8.711)" fill="#b1d2de"/>
    <path id="Path_49" data-name="Path 49" d="M95.809,430.044a14.645,14.645,0,1,1,10.348-4.286A14.759,14.759,0,0,1,95.809,430.044Zm0,0" transform="translate(-1.943 -9.594)" fill="#b1d2de"/>
    <path id="Path_50" data-name="Path 50" d="M181.871,442.344a14.632,14.632,0,1,1,10.355-4.286A14.748,14.748,0,0,1,181.871,442.344Zm0,0" transform="translate(-4.004 -9.889)" fill="#5c99af"/>
    <path id="Path_51" data-name="Path 51" d="M157.282,270.2a14.632,14.632,0,1,1,10.355-4.286A14.748,14.748,0,0,1,157.282,270.2Zm0,0" transform="translate(-3.415 -5.768)" fill="#b1d2de"/>
    <path id="Path_52" data-name="Path 52" d="M206.469,319.384a14.645,14.645,0,1,1,10.348-4.286A14.736,14.736,0,0,1,206.469,319.384Zm0,0" transform="translate(-4.592 -6.945)" fill="#b1d2de"/>
    <path id="Path_53" data-name="Path 53" d="M255.649,368.575a14.664,14.664,0,1,1,10.348-4.3A14.722,14.722,0,0,1,255.649,368.575Zm0,0" transform="translate(-5.77 -8.123)" fill="#5c99af"/>
    <path id="Path_54" data-name="Path 54" d="M347.86,104.215a14.632,14.632,0,1,1,10.355-4.286A14.742,14.742,0,0,1,347.86,104.215Zm0,0" transform="translate(-7.977 -1.794)" fill="#df5b5b"/>
    <path id="Path_55" data-name="Path 55" d="M421.641,177.993A14.645,14.645,0,1,1,432,173.7,14.741,14.741,0,0,1,421.641,177.993Zm0,0" transform="translate(-9.744 -3.56)" fill="#5c99af"/>
    <path id="Path_56" data-name="Path 56" d="M259.521,196.046A40.3,40.3,0,0,1,282.2,173.368V120.855A91.236,91.236,0,0,0,207,196.043Zm0,0" transform="translate(-4.956 -2.893)" fill="#b1d2de"/>
    <path id="Path_57" data-name="Path 57" d="M314.043,173.368a40.273,40.273,0,0,1,22.678,22.678h52.513a91.236,91.236,0,0,0-75.191-75.195Zm0,0" transform="translate(-7.518 -2.893)" fill="#b1d2de"/>
    <path id="Path_58" data-name="Path 58" d="M336.721,227.891a40.307,40.307,0,0,1-22.678,22.678v52.513a91.232,91.232,0,0,0,75.191-75.191Zm0,0" transform="translate(-7.518 -5.456)" fill="#5c99af"/>
    <path id="Path_59" data-name="Path 59" d="M282.2,250.565a40.312,40.312,0,0,1-22.678-22.674l-52.513,0A91.232,91.232,0,0,0,282.2,303.081Zm0,0" transform="translate(-4.956 -5.456)" fill="#b1d2de"/>
    <g id="Group_17" data-name="Group 17" transform="translate(83.514 143.469)">
      <path id="Path_60" data-name="Path 60" d="M169.684,356.379a14.647,14.647,0,0,0,10.359-25l-20.715,20.711A14.793,14.793,0,0,0,169.684,356.379Zm0,0" transform="translate(-87.328 -151.403)" fill="#5c99af"/>
      <path id="Path_61" data-name="Path 61" d="M132.8,393.27a14.645,14.645,0,0,0,10.355-25l-20.7,20.7A14.723,14.723,0,0,0,132.8,393.27Zm0,0" transform="translate(-86.446 -152.286)" fill="#5c99af"/>
      <path id="Path_62" data-name="Path 62" d="M95.914,430.149a14.631,14.631,0,0,0,10.348-24.985l-20.7,20.7A14.737,14.737,0,0,0,95.914,430.149Zm0,0" transform="translate(-85.563 -153.169)" fill="#5c99af"/>
      <path id="Path_63" data-name="Path 63" d="M206.574,319.489A14.631,14.631,0,0,0,216.922,294.5l-20.7,20.7A14.733,14.733,0,0,0,206.574,319.489Zm0,0" transform="translate(-88.212 -150.52)" fill="#5c99af"/>
      <path id="Path_64" data-name="Path 64" d="M364.063,146.988,328.07,182.977a40.251,40.251,0,0,1,8.987,13.7H389.57A90.854,90.854,0,0,0,364.063,146.988Zm0,0" transform="translate(-91.368 -146.988)" fill="#5c99af"/>
      <path id="Path_65" data-name="Path 65" d="M282.824,303.417V250.9a40.143,40.143,0,0,1-13.692-8.987l-35.992,35.992A90.884,90.884,0,0,0,282.824,303.417Zm0,0" transform="translate(-89.096 -149.261)" fill="#5c99af"/>
    </g>
  </g>
</svg>
