<svg xmlns="http://www.w3.org/2000/svg" width="511.582" height="383.686" viewBox="0 0 511.582 383.686">
  <g id="back" transform="translate(0 -76.5)">
    <g id="backspace" transform="translate(0 76.5)">
      <path id="Path_69" data-name="Path 69" d="M468.95,76.5H149.211c-14.921,0-25.579,6.395-34.105,19.184L0,268.343,115.106,441c8.526,10.658,19.184,19.184,34.105,19.184H468.95a42.757,42.757,0,0,0,42.632-42.632V119.132A42.757,42.757,0,0,0,468.95,76.5ZM405,345.081,375.16,374.923l-76.737-76.737-76.737,76.737-29.842-29.842,76.737-76.737-76.737-76.737,29.842-29.842L298.423,238.5l76.737-76.737L405,191.606l-76.737,76.737Z" transform="translate(0 -76.5)" fill="#1e6984"/>
    </g>
  </g>
</svg>
