<svg xmlns="http://www.w3.org/2000/svg" viewBox="0 0 463.4 491.551">
  <g id="competitor" transform="translate(-0.276)">
    <path id="Path_3" data-name="Path 3" d="M48.473,398.02c-75.2-92.8-60.8-228.8,32-304a216.667,216.667,0,0,1,272,0Zm0,0" fill="#00465f"/>
    <path id="Path_4" data-name="Path 4" d="M226.074,219.617l-26.4-13.6v-32l8-12a35.958,35.958,0,0,0,5.6-25.6l-.8-10.4c-3.2-20-21.6-34.4-41.6-31.2a37.343,37.343,0,0,0-31.2,31.2l-1.6,10.4a35.941,35.941,0,0,0,5.6,25.6l8,12v32l-62.4,31.2c-10.4,5.6-17.6,16.8-17.6,28.8v108Zm0,0" fill="#efccbf"/>
    <path id="Path_5" data-name="Path 5" d="M89.273,237.219c-10.4,5.6-17.6,16.8-17.6,28.8v108l154.4-155.2-26.4-12.8h-48Zm0,0" fill="#ffda2d"/>
    <path id="Path_6" data-name="Path 6" d="M111.676,414.02c92.8,75.2,228.8,60.8,304-32a216.667,216.667,0,0,0,0-272Zm0,0" fill="#00465f"/>
    <path id="Path_7" data-name="Path 7" d="M383.676,358.02v-32l12.8-19.2a13.883,13.883,0,0,0,2.4-11.2l-4.8-36c-.8-8-8-13.6-16-13.6h-36c-8,0-14.4,5.6-16,13.6l-4.8,36a13.883,13.883,0,0,0,2.4,11.2l12,19.2v32l-71.2,35.2c-5.6,2.4-8.8,8-8.8,14.4v54.4a219.755,219.755,0,0,0,112.8-36.8,212.218,212.218,0,0,0,51.2-48.8Zm0,0" fill="#efccbf"/>
    <path id="Path_8" data-name="Path 8" d="M383.676,358.02l-24,24-24-24-71.2,35.2c-5.6,2.4-8.8,8-8.8,14.4v54.4a219.755,219.755,0,0,0,112.8-36.8,212.218,212.218,0,0,0,51.2-48.8Zm0,0" fill="#df5b5b"/>
    <g id="Group_2" data-name="Group 2">
      <path id="Path_9" data-name="Path 9" d="M378.176,208.2l32.242-32.246,11.313,11.316-32.242,32.242Zm0,0" fill="#fff"/>
      <path id="Path_10" data-name="Path 10" d="M178.133,416.238l23.758-23.758,11.316,11.313-23.758,23.762Zm0,0" fill="#fff"/>
      <path id="Path_11" data-name="Path 11" d="M218.254,360.121l48.082-48.086,11.316,11.316-48.086,48.082Zm0,0" fill="#fff"/>
      <path id="Path_12" data-name="Path 12" d="M370.137,72.242l23.758-23.758L405.207,59.8,381.449,83.559Zm0,0" fill="#5c99af"/>
      <path id="Path_13" data-name="Path 13" d="M338.215,40.164,378.379,0l11.313,11.313L349.527,51.477Zm0,0" fill="#5c99af"/>
      <path id="Path_14" data-name="Path 14" d="M34.254,480.117l48.082-48.082,11.316,11.313L45.566,491.434Zm0,0" fill="#5c99af"/>
      <path id="Path_15" data-name="Path 15" d="M90.133,480.238l23.758-23.758,11.316,11.313-23.758,23.758Zm0,0" fill="#5c99af"/>
      <path id="Path_16" data-name="Path 16" d="M258.137,112.242l23.758-23.758L293.207,99.8l-23.758,23.758Zm0,0" fill="#fff"/>
      <path id="Path_17" data-name="Path 17" d="M38.52,204.422,82.645,160.3l11.313,11.313L49.832,215.738Zm0,0" fill="#fff"/>
    </g>
    <path id="Path_18" data-name="Path 18" d="M295.676,406.02h32v16h-32Zm0,0" fill="#f78b7c"/>
    <path id="Path_19" data-name="Path 19" d="M351.676,435.617c5.6-3.2,11.2-6.4,16-9.6v-52l-8,8-8-8Zm0,0" fill="#f78b7c"/>
    <path id="Path_20" data-name="Path 20" d="M393.407,259.617c-.8-8-8.015-13.6-16.03-13.6H341.308c-8.015,0-14.426,5.6-16.03,13.6l-2.4,18.4h72.939Zm0,0" transform="translate(0.713)" fill="#704d4d"/>
    <path id="Path_21" data-name="Path 21" d="M212.473,126.02c-3.2-20-21.6-34.4-41.6-31.2a37.343,37.343,0,0,0-31.2,31.2Zm0,0" fill="#704d4d"/>
    <path id="Path_22" data-name="Path 22" d="M183.676,262.02v-56h-16v72Zm0,0" fill="#ddad6f"/>
    <path id="Path_23" data-name="Path 23" d="M127.676,318.02v-48h-16v64Zm0,0" fill="#ddad6f"/>
  </g>
</svg>
