<svg xmlns="http://www.w3.org/2000/svg" viewBox="0 0 512 453.83">
  <g id="speaker" transform="translate(0 -1.574)">
    <g id="c74_volume" transform="translate(0 1.574)">
      <path id="Path_74" data-name="Path 74" d="M85.657,133.669H0v190.82H85.657L247.586,444.6s29.759,24.864,29.759-.831V10.661c0-20.172-26.194-.462-26.194-.462Z" transform="translate(0 -1.574)" fill="#00465f"/>
      <path id="Path_75" data-name="Path 75" d="M55.191,12.737A21.774,21.774,0,1,0,24.379,43.512a142.872,142.872,0,0,1,41.988,101.3A143.206,143.206,0,0,1,24.379,246.321a21.8,21.8,0,0,0,15.443,37.24,21.57,21.57,0,0,0,15.369-6.355,186.694,186.694,0,0,0,54.734-132.392A186.118,186.118,0,0,0,55.191,12.737Z" transform="translate(314.368 82.117)" fill="#1e6984"/>
      <path id="Path_76" data-name="Path 76" d="M58.493,9.061a21.859,21.859,0,1,0-30.96,30.867A239.6,239.6,0,0,1,98.171,209.986a240.847,240.847,0,0,1-70.639,170.87A21.853,21.853,0,0,0,58.493,411.7,285.1,285.1,0,0,0,141.8,209.986,283.975,283.975,0,0,0,58.493,9.061Z" transform="translate(370.197 17.168)" fill="#5c99af"/>
    </g>
  </g>
</svg>
