<?xml version="1.0" standalone="no"?>
<!DOCTYPE svg PUBLIC "-//W3C//DTD SVG 20010904//EN"
 "http://www.w3.org/TR/2001/REC-SVG-20010904/DTD/svg10.dtd">
<svg version="1.0" xmlns="http://www.w3.org/2000/svg"
 width="850.000000pt" height="850.000000pt" viewBox="0 0 850.000000 850.000000"
 preserveAspectRatio="xMidYMid meet">
<metadata>
Created by potrace 1.11, written by Peter Selinger 2001-2013
</metadata>
<g transform="translate(0.000000,850.000000) scale(0.100000,-0.100000)"
fill="#000000" stroke="none">
<path d="M4175 8489 c-4 -5 -14 -9 -23 -9 -10 0 -41 -16 -71 -35 -29 -19 -55
-35 -57 -35 -3 0 -29 -18 -59 -40 -30 -22 -57 -40 -61 -40 -3 0 -24 -14 -45
-31 -21 -17 -39 -27 -39 -22 0 4 -4 3 -8 -2 -4 -6 -43 -34 -87 -62 -44 -29
-85 -56 -91 -61 -5 -5 -21 -15 -35 -22 -13 -7 -26 -16 -29 -19 -3 -4 -81 -56
-175 -116 -93 -60 -172 -112 -175 -115 -9 -9 -65 -45 -92 -59 -16 -8 -28 -18
-28 -23 0 -4 -4 -8 -9 -8 -5 0 -76 -44 -158 -98 -81 -54 -197 -131 -258 -170
-147 -96 -145 -95 -161 -110 -8 -7 -14 -10 -14 -7 0 4 -18 -8 -40 -25 -22 -17
-40 -29 -40 -26 0 3 -8 -1 -17 -9 -10 -8 -83 -57 -163 -109 -80 -52 -150 -99
-155 -104 -6 -5 -15 -11 -20 -13 -6 -2 -71 -44 -145 -93 -74 -49 -232 -153
-350 -231 -118 -78 -289 -191 -380 -251 -91 -60 -169 -111 -175 -113 -5 -2
-27 -17 -47 -33 -21 -16 -38 -26 -38 -21 0 4 -4 4 -8 -2 -11 -15 -99 -75 -110
-75 -6 0 -12 -3 -14 -8 -2 -4 -28 -23 -58 -42 -30 -19 -57 -37 -60 -40 -3 -3
-30 -21 -60 -40 -30 -19 -56 -38 -58 -42 -2 -5 -7 -8 -11 -8 -25 0 -301 -198
-301 -216 0 -3 -9 -18 -20 -33 -22 -31 -30 -62 -37 -141 -12 -133 97 -277 232
-306 17 -3 122 -7 235 -7 l205 -2 -1 -386 c-1 -212 -4 -391 -7 -396 -4 -6 -4
-13 0 -17 8 -8 8 -450 -1 -464 -3 -6 -3 -13 1 -15 9 -6 9 -130 0 -144 -4 -6
-4 -13 0 -17 8 -8 8 -450 0 -463 -4 -6 -4 -13 0 -16 8 -8 8 -1091 0 -1104 -4
-6 -4 -13 0 -17 8 -8 8 -450 0 -463 -4 -6 -4 -13 0 -16 8 -8 8 -1091 0 -1104
-4 -6 -4 -13 -1 -16 4 -3 7 -111 8 -239 1 -199 4 -238 19 -265 9 -18 17 -37
17 -43 0 -14 46 -76 85 -115 43 -43 82 -67 150 -92 l60 -22 3065 -1 c3323 0
3121 -3 3218 52 95 54 179 164 196 258 2 14 5 25 6 25 2 0 3 1143 4 2539 l1
2540 190 1 c198 1 213 3 282 37 48 23 123 99 123 122 0 9 4 16 9 16 16 0 33
99 28 158 -2 31 -15 79 -27 105 -25 54 -88 120 -131 139 -16 7 -29 16 -29 20
0 4 -12 14 -27 23 -32 18 -38 22 -197 125 l-116 75 0 787 c0 768 -4 888 -32
888 -4 0 -8 8 -8 19 0 24 -80 104 -131 130 -21 11 -39 19 -39 16 0 -2 -12 0
-27 6 -41 16 -1316 14 -1374 -1 -63 -17 -92 -34 -137 -81 -77 -78 -86 -110
-89 -309 -2 -96 -4 -190 -6 -207 l-2 -33 -245 161 c-135 89 -277 183 -317 210
-39 27 -76 49 -82 49 -6 0 -11 4 -11 8 0 5 -12 15 -27 23 -16 8 -32 18 -38 22
-33 26 -588 387 -595 387 -6 0 -10 3 -10 8 0 4 -30 25 -66 47 -35 22 -75 48
-87 58 -53 44 -130 71 -209 74 -43 1 -80 -2 -83 -8z"/>
</g>
</svg>
